<svg xmlns="http://www.w3.org/2000/svg" viewBox="0 0 100 125" x="0px" y="0px"><title>game</title><g fill="#61DAFB"><path d="M95.37385,57.56039c-0.23907-9.06821-.30545-18.14084-0.49056-27.21066-0.0981-4.80972-.28879-9.61759-0.44747-14.426a2.79059,2.79059,0,0,0-2.67875-3.03957C87.44,12.41839,83.12841,11.848,78.7986,11.56535c-5.23711-.34189-10.51107-0.20743-15.7324-0.68263-7.3784-.67151-14.71684-1.77-22.08514-2.569-3.18553-.34548-6.40152-0.44-9.60708-0.53553a2.48376,2.48376,0,0,0-1.29739.99963A19.526,19.526,0,0,1,27.55168,11.682c-4.55029,3.30488-9.27923,6.36731-13.77787,9.73848a89.43991,89.43991,0,0,0-8.48013,7.35969,5.62592,5.62592,0,0,0-1.35824,3.44436c-0.08365,1.25239.666,2.53808,0.73951,3.827,0.49536,8.68246.82978,17.37465,1.38274,26.05308,0.24718,3.88019.8849,7.73521,1.33546,11.60282q0.75285,6.46082,1.49353,12.923a60.66852,60.66852,0,0,1,9.47119,1.15214c1.37783,0.02764,2.7542.07369,4.12566,0.18219,4.63029,0.36625,9.24811.898,13.86731,1.39513,5.56314,0.59876,11.12544,1.20745,16.68163,1.867,2.366,0.28084,4.70665.86371,7.07587,0.98912a6.30537,6.30537,0,0,0,3.50615-.99348,86.82066,86.82066,0,0,1,16.74723-8.08086,116.05881,116.05881,0,0,0,13.98164-6.66849,4.55739,4.55739,0,0,0,1.72753-3.50571C96.00914,67.82987,95.50936,62.69909,95.37385,57.56039ZM55.4734,86.85517c-9.55406-1.37687-19.135-2.56914-28.684-3.97862-4.42-.65242-8.80147-1.59489-13.16538-2.56385a2.51565,2.51565,0,0,1-1.40338-1.82006c-0.82608-7.52748-1.6083-15.06152-2.2534-22.60657-0.56637-6.6244-.94846-13.26466-1.39764-19.89889-0.04988-.73659-0.00679-1.47949-0.00679-2.64854,4.78649,0.54342,9.23277.94107,13.6459,1.57094,10.0034,1.42779,19.98959,2.97667,29.98544,4.45817a2.23013,2.23013,0,0,1,2.25694,2.46641q0.29331,8.20119.89025,16.39085c0.64847,8.89223,1.40349,17.77669,2.12369,26.66362C57.58462,86.36425,57.2827,87.1159,55.4734,86.85517ZM50.95937,35.87c-8.73642-1.36343-17.44084-2.93324-26.15254-4.45288-4.32755-.75485-8.64532-1.5657-13.47237-2.443,6.81517-5.201,13.2365-10.14614,19.72828-14.997a4.85651,4.85651,0,0,1,2.92406-.91345c9.29176,0.49853,18.57733,1.11294,27.86506,1.68808,3.74887,0.23215,7.50254.4003,11.24722,0.68652,4.01338,0.30675,8.01881.71816,12.02772,1.08391l0.101,0.60265c-2.76957,1.83305-5.56269,3.63171-8.30368,5.50666-4.89414,3.34777-9.74745,6.75528-14.63811,10.10821-1.54391,1.05851-3.03706,2.46831-4.76133,2.915A16.62862,16.62862,0,0,1,50.95937,35.87ZM91.84127,70.88718c-0.11631.99219-1.53563,2.1417-2.62584,2.6577-5.54973,2.62675-11.22829,4.98137-16.77664,7.611-3.10387,1.47113-6.04128,3.29315-9.056,4.953-0.5709.31442-1.15233,0.60971-1.99143,1.0523a39.58227,39.58227,0,0,1-.795-4.61054c-0.22837-4.39737-.35936-8.80078-0.46165-13.20336-0.07129-3.06953-.02345-6.14165-0.04552-9.2125-0.04381-6.09762-.16525-12.19606-0.08436-18.29188A4.21438,4.21438,0,0,1,61.415,38.88719C67.203,34.59512,73.09565,30.4435,78.97825,26.28c3.9011-2.761,7.84016-5.4684,12.24566-8.53649,0,7.01192-.08282,13.5215.02091,20.02811,0.13043,8.18417.42485,16.36567,0.62436,24.5489A61.22437,61.22437,0,0,1,91.84127,70.88718Z"/><path d="M29.93828,53.962c2.91346,0.05906,4.89579,1.87554,4.837,4.43224a4.01351,4.01351,0,0,1-4.02877,3.97529,4.83644,4.83644,0,0,1-4.6352-4.61524C26.17125,55.14011,27.41186,53.91074,29.93828,53.962Z"/><path d="M81.46566,39.34393c-1.91954-.09508-3.69756-2.35838-3.518-4.47809a4.054,4.054,0,0,1,4.41285-3.82545,3.74322,3.74322,0,0,1,3.49071,3.70735C85.78388,37.05612,83.50449,39.44491,81.46566,39.34393Z"/><path d="M69.16068,43.53653a4.355,4.355,0,0,1-2.877,3.96087c-1.96313.80292-2.7886-.61553-3.46692-1.90039a8.493,8.493,0,0,1-1.14157-3.723c-0.00789-2.397,2.24342-3.50821,4.25052-2.16957C67.28721,40.61247,69.15621,41.19231,69.16068,43.53653Z"/><path d="M65.71544,74.2299c0.00375-2.15,1.29176-3.5667,3.20192-3.52191,1.92616,0.04517,3.0642,1.30435,3.05753,3.383-0.00811,2.53189-1.37,4.58458-3.058,4.60923C67.14806,78.72606,65.71108,76.71957,65.71544,74.2299Z"/><path d="M73.8302,55.2592c-0.08784-1.66945.48057-2.948,2.59069-2.94573,2.16452,0.00237,3.62268,1.63562,3.55658,3.99193a3.74436,3.74436,0,0,1-3.2881,3.33489C75.20974,59.63131,73.80041,57.5515,73.8302,55.2592Z"/><path d="M89.914,68.28883c-0.03029,1.60111-1.802,3.65224-3.09234,3.58016-1.32994-.07431-3.04478-2.51693-2.99-4.25907,0.04111-1.30866,1.86906-3.15283,3.06106-3.08822C88.12115,64.58828,89.941,66.85741,89.914,68.28883Z"/><path d="M40.41127,23.21433c0.232-1.181.41448-2.68678,2.40254-2.62887,2.70258,0.07869,4.62339,1.23571,4.56943,2.69672a4.43813,4.43813,0,0,1-3.7806,3.84192C41.92644,27.18733,40.41111,25.4522,40.41127,23.21433Z"/><path d="M65.96119,20.18854a3.50992,3.50992,0,0,1-3.335,3.29082c-1.58987-.01684-2.73939-1.45941-2.76868-3.47461-0.02593-1.78775,1.22593-2.98049,3.19916-3.04794C64.71782,16.9,65.90381,18.21962,65.96119,20.18854Z"/><path d="M23.14325,26.97476c0.087-2.82717,1.63589-4.4142,3.50913-3.94511a3.96249,3.96249,0,0,1,2.48,2.36811c0.40217,1.60806-2.06934,4.70631-3.11927,4.20805A11.31806,11.31806,0,0,1,23.14325,26.97476Z"/></g></svg>
